<?xml version="1.0" encoding="UTF-8"?>

<svg tabindex="0" class="skill-list-svg" id="interactive-interfaces" width="275" height="275" viewBox="0 0 275 275" version="1.1" xmlns="http://www.w3.org/2000/svg" xmlns:xlink="http://www.w3.org/1999/xlink">
    <title>Interactive interfaces</title>
    <defs>
    </defs>
    <g id="svg-interactive-interfaces" pointer-events="none" stroke="none" stroke-width="1" fill="none" fill-rule="evenodd">
        <mask id="ii_mask-2" fill="white">
          <rect id="ii_path-1" x="0" y="0" width="275" height="275"></rect>
        </mask>
        <g id="ii_Group" mask="url(#ii_mask-2)">
            <polygon id="ii_mask" fill="#29BCBD" points="275 0 0 0 0 275 275 275"></polygon>
            <polyline id="ii_black" fill="#262642" points="0 0 77 0 0 73"></polyline>
            <polygon id="ii_orange" fill="#F6902B" points="77 0 289 0 289 121.5 77 121.5"></polygon>
            <polygon id="ii_red" fill="#E34425" points="51 61 224 61 224 149 51 149"></polygon>
            <rect id="ii_wheat" fill="#D8D8D8" x="0" y="101" width="80" height="80"></rect>
            <g id="ii_lines" fill="#262642">
                <rect id="ii_line-1" x="13" y="20" width="77" height="6"></rect>
                <rect id="ii_line-2" x="13" y="35" width="77" height="6"></rect>
                <rect id="ii_line-3" x="13" y="50" width="77" height="6"></rect>
            </g>
            <rect id="ii_darken" fill-opacity="0.5" fill="#135757" x="0" y="0" width="275" height="275" style="pointer-events:none;"></rect>
            <rect id="ii_title-bg" fill-opacity="0.6" fill="#135757" x="0" y="180" width="275" height="95"></rect>
            <rect id="ii_text-bg" fill-opacity="0" fill="#135757" x="0" y="0" width="275" height="275"></rect>
            <text id="ii_text" width="235" fill="#FCFCFC" >
                <tspan font-family="Montserrat-Regular, Montserrat, Helvetica, Arial, sans" font-size="30" font-weight="normal" class="title" x="20" y="218">Interactive</tspan>
                <tspan font-family="Montserrat-Regular, Montserrat, Helvetica, Arial, sans" font-size="30" font-weight="normal" class="title" x="20" y="255">Interfaces</tspan>
                <tspan font-family="Work Sans, , Helvetica, Arial, sans" font-size="18" font-weight="normal" class="subtitle" x="20" y="300">Working with the</tspan>
                <tspan font-family="Work Sans, , Helvetica, Arial, sans" font-size="18" font-weight="normal" class="subtitle" x="20" y="325">designers, we will craft </tspan>
                <tspan font-family="Work Sans, , Helvetica, Arial, sans" font-size="18" font-weight="normal" class="subtitle" x="20" y="350">meaningful animations</tspan>
                <tspan font-family="Work Sans, , Helvetica, Arial, sans" font-size="18" font-weight="normal" class="subtitle" x="20" y="375">and interactions</tspan>
            </text>
            <image id="ii_background" fill="none" opacity="0.6" style="pointer-events:none; mix-blend-mode: hard-light; transform: rotate(180deg); transform-origin: center;" x="0" y="0" width="275" height="275" transform-origin="137.5 137.5" xlink:href="/img/mask.jpg"></image>
        </g>
    </g>
</svg>
