<?xml version="1.0" encoding="UTF-8"?>
<svg id="svg-ui" width="275px" height="275px" viewBox="0 0 275 275" version="1.1" xmlns="http://www.w3.org/2000/svg" xmlns:xlink="http://www.w3.org/1999/xlink" style="cursor: pointer;">
  <desc>UI Systems</desc>
  <defs>
  </defs>
  <g id="ui" stroke="none" stroke-width="0" fill="none" fill-rule="evenodd" >
    <mask id="mask-2" fill="white">
      <rect id="path-1" x="0" y="0" width="275" height="275"></rect>
    </mask>
    <g id="Mask"></g>
    <g id="Group" mask="url(#mask-2)" style="">
      <polygon id="background" fill="#D8D8D8" fill-rule="evenodd" points="0 0 275 0 275 275 0 275"></polygon>
      <polygon id="rect-orange" fill="#F6902B" fill-rule="evenodd" points="147 104 250 104 250 203 147 203"></polygon>
      <polygon id="rect-red" fill="#E34425" fill-rule="evenodd" points="77 33 153.474423 33 153.474423 81.5 77 81.5"></polygon>
      <polygon id="rect-teal" stroke="none" fill="#29BCBD" fill-rule="evenodd" points="60 0 60 215 11 215 11 0"></polygon>
      <polygon id="tri-wheat" fill="#D8D8D8" fill-rule="evenodd" points="82 40 116 40 82 74"></polygon>
      <g id="lines-black" stroke-width="1" fill="none" fill-rule="evenodd" transform="translate(38.000000, 185.000000)">
          <rect id="Rectangle-4" fill="#262642" x="0" y="0" width="77" height="6"></rect>
          <rect id="Rectangle-4-Copy" fill="#262642" x="0" y="15" width="77" height="6"></rect>
          <rect id="Rectangle-4-Copy-2" fill="#262642" x="0" y="29" width="77" height="6"></rect>
      </g>
      <rect id="darken" fill-opacity="0.5" fill="#262626" fill-rule="evenodd" x="0" y="0" width="275" height="275" style="pointer-events:none;"></rect>
      <rect id="title-bg" fill-opacity="0.6" fill="#135757" x="0" y="180" width="275" height="95"></rect>
      <text id="title" font-family="Montserrat-Regular, Montserrat" font-size="30" font-weight="bold" fill="#FCFCFC">
          <tspan x="20" y="218"></tspan>
          <tspan x="20" y="255">UI Systems</tspan>
      </text>
      <image id="mask" fill="none" opacity="0.8" style="pointer-events:none; mix-blend-mode: hard-light;" transform="" x="0" y="0" width="275" height="275" xlink:href="/img/mask.jpg"></image>
    </g>
  </g>
</svg>
