<svg tabindex="0" class="skill-list-svg" id="wordpress-typo3" width="275" height="275" viewBox="0 0 275 275" version="1.1" xmlns="http://www.w3.org/2000/svg" xmlns:xlink="http://www.w3.org/1999/xlink" aria-labelledby="ii_title ii_desc">
    <title id="ii_title">
        Wordpress, Typo3
    </title>
    <desc id="ii_desc">
        While building complex layouts, together with the editors, we will set up a simple and powerful administration system.
    </desc>
    <g id="svg-wordpress-typo3" pointer-events="none" stroke="none" stroke-width="1" fill="none" fill-rule="evenodd" mask="url(#wt_mask-2)">
        <mask id="wt_mask-2" fill="#fff">
            <path role="presentation" id="wt_path-1" d="M0 0h275v275H0z"/>
        </mask>
        <g id="ii_illustration" role="img" aria-labelledby="ii_illustration_desc">
            <desc id="ii_illustration_desc">
                Rectangles moving into the shape of a blog layout
            </desc>
            <path id="wt_background" fill="#E34425" d="M275 0H0v275h275z"/>
            <path id="wt_orange" fill="#F6902B" d="M245-60v232h-29V-60z"/>
            <path id="wt_wheat" fill="#D8D8D8" d="M22 29h148v79H22z"/>
            <path id="wt_teal" fill="#29BCBD" d="M113 103h85v45h-85z"/>
            <path id="wt_black" fill="#262642" d="M257 180H149l108-99z"/>
            <g id="wt_lines" transform="translate(180 140)" fill="#F26C21">
                <path id="wt_line-1" d="M0 17h70v2H0z"/>
                <path id="wt_line-2" d="M0 23h70v2H0z"/>
                <path id="wt_line-3" d="M0 29h70v2H0z"/>
                <path id="wt_line-4" d="M30 0h40v2H30z"/>
                <path id="wt_line-5" d="M30 6h40v2H30z"/>
                <path id="wt_line-6" d="M30 11h40v2H30z"/>
            </g>
            <path id="wt_darken" fill-opacity=".8" fill="#972D18" fill-rule="evenodd" pointer-events="none" d="M0 0h275v275H0z"/>
            <path id="wt_title-bg" fill-opacity="1" fill="#972D18" d="M0 180h275v95H0z"/>
            <path id="wt_text-bg" fill-opacity="0" fill="#972D18" d="M0 0h275v275H0z"/>
        </g>
        <text id="wt_text" width="235" fill="#FCFCFC">
            <tspan font-family="Montserrat-Regular, Montserrat, Helvetica, Arial, sans" font-size="30" font-weight="normal" class="title" x="20" y="218">Wordpress</tspan> <tspan font-family="Montserrat-Regular, Montserrat, Helvetica, Arial, sans" font-size="30" font-weight="normal" class="title" x="20" y="255">Typo3</tspan> <tspan font-family="Work Sans, Helvetica, Arial, sans" font-size="18" font-weight="normal" class="subtitle" x="20" y="300">While building complex</tspan> <tspan font-family="Work Sans, Helvetica, Arial, sans" font-size="18" font-weight="normal" class="subtitle" x="20" y="325">layouts, together with the</tspan> <tspan font-family="Work Sans, Helvetica, Arial, sans" font-size="18" font-weight="normal" class="subtitle" x="20" y="350">editors, we will set up</tspan> <tspan font-family="Work Sans, Helvetica, Arial, sans" font-size="18" font-weight="normal" class="subtitle" x="20" y="375">a simple and powerful</tspan> <tspan font-family="Work Sans, Helvetica, Arial, sans" font-size="18" font-weight="normal" class="subtitle" x="20" y="400">administration system.</tspan>
        </text>
        <image role="presentation" id="wt_mask" fill="none" opacity=".5" style="mix-blend-mode:hard-light;transform-origin:center" x="0" y="0" width="275" height="275" xlink:href="/img/mask.jpg" pointer-events="none"/>
    </g>
</svg>
