<svg tabindex="0" class="skill-list-svg" id="workshops-courses" width="275" height="275" viewBox="0 0 275 275" version="1.1" xmlns="http://www.w3.org/2000/svg" xmlns:xlink="http://www.w3.org/1999/xlink" aria-labelledby="wc_title wc_desc">
    <title id="wc_title">
        Workshop, Courses
    </title>
    <desc id="wc_desc">
        From student training to front-end masterclass, let&apos;s learn and improve together.
    </desc>
    <g id="svg-workshops-courses" stroke="none" stroke-width="1" fill="none" fill-rule="evenodd" pointer-events="none" mask="url(#wc_mask)">
        <mask id="wc_mask" fill="#fff">
            <path role="presentation" id="wc_path-1" d="M275 0H0v275h275z"/>
        </mask>
        <g id="wc_illustration" role="img" aria-labelledby="wc_illustration_desc">
            <desc id="wc_illustration_desc">
                Rectangles moving into the shape of a person and paperboard
            </desc>
            <path id="wc_background" fill="#F6902B" d="M275 0H0v275h275z"/>
            <path id="wc_teal" fill="#29BCBD" d="M80 80h175v110H80z"/>
            <path id="wc_black" fill="#262642" d="M52 17h168v92H52z"/>
            <g id="wc_lines" fill="#F26C21">
                <path id="wc_line-1" d="M100 130h77v6h-77z"/>
                <path id="wc_line-2" d="M100 145h77v6h-77z"/>
                <path id="wc_line-3" d="M100 160h77v6h-77z"/>
            </g>
            <path id="wc_wheat" fill="#D8D8D8" d="M155 28h52v52h-52z"/>
            <path id="wc_red" fill="#E34425" mask="url(#wc_mask)" d="M-6 183l-51-51H45z"/>
            <path id="wc_darken" fill-opacity=".6" fill="#7F4A15" d="M275 0H0v275h275z"/>
            <path id="wc_title-bg" fill-opacity=".6" fill="#7F4A15" d="M0 180h275v95H0z"/>
            <path id="wc_text-bg" fill-opacity="0" fill="#7F4A15" d="M0 0h275v275H0z"/>
        </g>
        <text id="wc_text" width="235" fill="#FCFCFC">
            <tspan font-family="Montserrat-Regular, Montserrat, Helvetica, Arial, sans" font-size="30" font-weight="normal" class="title" x="20" y="218">Courses</tspan> <tspan font-family="Montserrat-Regular, Montserrat, Helvetica, Arial, sans" font-size="30" font-weight="normal" class="title" x="20" y="255">Workshops</tspan> <tspan font-family="Work Sans, Helvetica, Arial, sans" font-size="18" font-weight="normal" class="subtitle" x="20" y="300">From student training to</tspan> <tspan font-family="Work Sans, Helvetica, Arial, sans" font-size="18" font-weight="normal" class="subtitle" x="20" y="325">front-end masterclass,</tspan> <tspan font-family="Work Sans, Helvetica, Arial, sans" font-size="18" font-weight="normal" class="subtitle" x="20" y="350">let&apos;s learn and improve</tspan> <tspan font-family="Work Sans, Helvetica, Arial, sans" font-size="18" font-weight="normal" class="subtitle" x="20" y="375">together.</tspan>
        </text>
        <image role="presentation" id="wc_background" fill="none" opacity=".8" style="mix-blend-mode:hard-light;transform-origin:center" transform-origin="137.5 137.5" x="0" y="0" width="275" height="275" xlink:href="/img/mask.jpg" pointer-events="none" transform="rotate(90)"/>
    </g>
</svg>
