<?xml version="1.0" encoding="UTF-8"?>
<svg class="skill-list-svg" id="workshops-courses" width="275" height="275" viewBox="0 0 275 275" version="1.1" xmlns="http://www.w3.org/2000/svg" xmlns:xlink="http://www.w3.org/1999/xlink">
  <desc>Workshops, courses</desc>
    <g id="svg-workshops-courses" stroke="none" stroke-width="1" fill="none" fill-rule="evenodd" pointer-events="none">
      <mask id="mask-2" fill="white">
        <polygon id="path-1" points="275 0 0 0 0 275 275 275"></polygon>
      </mask>
      <use id="background" fill="#F6902B" xlink:href="#path-1"></use>
      <polygon id="teal" fill="#29BCBD" mask="url(#mask-2)" points="80 80 255 80 255 190 80 190"></polygon>
      <polygon id="black" fill="#262642" mask="url(#mask-2)" points="52 17 220 17 220 109 52 109"></polygon>
      <g id="lines" mask="url(#mask-2)" fill="#F26C21">
          <g transform="translate(100, 130)">
              <rect id="Rectangle-4" x="0" y="0" width="77" height="6"></rect>
              <rect id="Rectangle-4-Copy" x="0" y="15" width="77" height="6"></rect>
              <rect id="Rectangle-4-Copy-2" x="0" y="30" width="77" height="6"></rect>
          </g>
      </g>
      <rect id="wheat" fill="#D8D8D8" mask="url(#mask-2)" x="155" y="28" width="52" height="52"></rect>
      <polyline id="red" fill="#E34425" mask="url(#mask-2)" points="-6 183 -57 132 45 132"></polyline>
      <polygon id="darken" points="275 0 0 0 0 275 275 275" fill-opacity="0.6" fill="#7F4A15"></polygon>
      <rect id="title-bg" fill-opacity="0.6" fill="#7F4A15" x="0" y="180" width="275" height="95"></rect>
      <rect id="text-bg" fill-opacity="0" fill="#7F4A15" x="0" y="0" width="275" height="275"></rect>
      <text id="text" width="235" fill="#FCFCFC" >
          <tspan font-family="Montserrat-Regular, Montserrat, Helvetica, Arial, sans" font-size="30" font-weight="normal" class="title" x="20" y="218">Courses</tspan>
          <tspan font-family="Montserrat-Regular, Montserrat, Helvetica, Arial, sans" font-size="30" font-weight="normal" class="title" x="20" y="255">Workshops</tspan>
          <tspan font-family="Work Sans, , Helvetica, Arial, sans" font-size="18" font-weight="normal" class="subtitle" x="20" y="300">From student training to</tspan>
          <tspan font-family="Work Sans, , Helvetica, Arial, sans" font-size="18" font-weight="normal" class="subtitle" x="20" y="325">front-end masterclass,</tspan>
          <tspan font-family="Work Sans, , Helvetica, Arial, sans" font-size="18" font-weight="normal" class="subtitle" x="20" y="350">let's learn and improve</tspan>
          <tspan font-family="Work Sans, , Helvetica, Arial, sans" font-size="18" font-weight="normal" class="subtitle" x="20" y="375">together.</tspan>
      </text>
      <image id="mask" fill="none" opacity="0.8" style="pointer-events:none; mix-blend-mode: hard-light; transform: rotate(90deg)"  transform-origin="137.5 137.5" x="0" y="0" width="275" height="275" xlink:href="/img/mask.jpg"></image>

    </g>
  </g>
</svg>
